<svg xmlns="http://www.w3.org/2000/svg" width="1200" height="627" viewBox="0 0 1200 627" role="img" aria-labelledby="title desc">
  <title id="title">Shane Kanterman social preview</title>
  <desc id="desc">Social preview card for Shane Kanterman's portfolio site.</desc>
  <defs>
    <linearGradient id="bg" x1="0" y1="0" x2="1" y2="1">
      <stop offset="0%" stop-color="#f8fafc" />
      <stop offset="100%" stop-color="#e4e4e7" />
    </linearGradient>
    <linearGradient id="panel" x1="0" y1="0" x2="1" y2="1">
      <stop offset="0%" stop-color="#1e293b" />
      <stop offset="100%" stop-color="#0f172a" />
    </linearGradient>
    <linearGradient id="accent" x1="0" y1="0" x2="1" y2="0">
      <stop offset="0%" stop-color="#2563eb" />
      <stop offset="100%" stop-color="#0f172a" />
    </linearGradient>
  </defs>

  <rect width="1200" height="627" rx="32" fill="url(#bg)" />
  <rect x="54" y="54" width="1092" height="519" rx="28" fill="#ffffff" stroke="#e4e4e7" stroke-width="2" />
  <rect x="90" y="90" width="1020" height="14" rx="7" fill="url(#accent)" />

  <rect x="90" y="136" width="132" height="132" rx="66" fill="url(#panel)" />
  <text x="156" y="215" text-anchor="middle" font-family="Inter, Arial, sans-serif" font-size="48" font-weight="800" fill="#ffffff">SK</text>

  <text x="264" y="188" font-family="Inter, Arial, sans-serif" font-size="30" font-weight="700" fill="#18181b">Shane Kanterman</text>
  <text x="90" y="340" font-family="Georgia, Times New Roman, serif" font-size="58" font-weight="700" fill="#18181b">Linux Infrastructure and</text>
  <text x="90" y="406" font-family="Georgia, Times New Roman, serif" font-size="58" font-weight="700" fill="#1e293b">Web Projects</text>
  <text x="90" y="468" font-family="Inter, Arial, sans-serif" font-size="24" fill="#52525b">
    <tspan x="90">Cloud deployment, PXE imaging, server operations,</tspan>
    <tspan x="90" dy="34">and case studies built with practical infrastructure experience.</tspan>
  </text>

  <g font-family="Inter, Arial, sans-serif" font-size="21" font-weight="600" fill="#334155">
    <rect x="90" y="526" width="136" height="38" rx="19" fill="#eff6ff" />
    <text x="158" y="551" text-anchor="middle">Cloudflare</text>
    <rect x="238" y="526" width="84" height="38" rx="19" fill="#eff6ff" />
    <text x="280" y="551" text-anchor="middle">GCP</text>
    <rect x="334" y="526" width="172" height="38" rx="19" fill="#eff6ff" />
    <text x="420" y="551" text-anchor="middle">GitHub Actions</text>
    <rect x="518" y="526" width="82" height="38" rx="19" fill="#eff6ff" />
    <text x="559" y="551" text-anchor="middle">PXE</text>
    <rect x="612" y="526" width="178" height="38" rx="19" fill="#eff6ff" />
    <text x="701" y="551" text-anchor="middle">Data Center Ops</text>
  </g>
</svg>
