<svg xmlns="http://www.w3.org/2000/svg" width="1200" height="627" viewBox="0 0 1200 627" role="img" aria-labelledby="title desc">
  <title id="title">Self-Hosted Linux Server social preview</title>
  <desc id="desc">Social preview card for the Self-Hosted Linux Server project.</desc>
  <defs>
    <linearGradient id="bg" x1="0" y1="0" x2="1" y2="1">
      <stop offset="0%" stop-color="#f8fafc" />
      <stop offset="100%" stop-color="#e4e4e7" />
    </linearGradient>
    <linearGradient id="panel" x1="0" y1="0" x2="1" y2="1">
      <stop offset="0%" stop-color="#1e293b" />
      <stop offset="100%" stop-color="#0f172a" />
    </linearGradient>
    <linearGradient id="accent" x1="0" y1="0" x2="1" y2="0">
      <stop offset="0%" stop-color="#2563eb" />
      <stop offset="100%" stop-color="#0f172a" />
    </linearGradient>
  </defs>

  <rect width="1200" height="627" rx="32" fill="url(#bg)" />
  <rect x="54" y="54" width="1092" height="519" rx="28" fill="#ffffff" stroke="#e4e4e7" stroke-width="2" />
  <rect x="90" y="90" width="1020" height="14" rx="7" fill="url(#accent)" />

  <rect x="90" y="136" width="210" height="42" rx="21" fill="#eff6ff" />
  <text x="195" y="163" text-anchor="middle" font-family="Inter, Arial, sans-serif" font-size="21" font-weight="700" fill="#1d4ed8">Case Study</text>
  <text x="90" y="260" font-family="Georgia, Times New Roman, serif" font-size="62" font-weight="700" fill="#18181b">Self-Hosted Linux</text>
  <text x="90" y="330" font-family="Georgia, Times New Roman, serif" font-size="62" font-weight="700" fill="#1e293b">Server</text>
  <text x="90" y="405" font-family="Inter, Arial, sans-serif" font-size="27" fill="#52525b">Proxmox host running Ubuntu VMs and containers for remote development, backups, and day-to-day Linux administration.</text>

  <g>
    <rect x="90" y="462" width="1020" height="1" fill="#e4e4e7" />
    <text x="90" y="510" font-family="Inter, Arial, sans-serif" font-size="23" font-weight="700" fill="#18181b">Proxmox VE  •  Ubuntu Server  •  SSH  •  ZFS  •  Virtualization</text>
    <text x="90" y="550" font-family="Inter, Arial, sans-serif" font-size="22" fill="#71717a">Shane Kanterman</text>
  </g>

  <rect x="910" y="136" width="200" height="200" rx="28" fill="url(#panel)" />
  <rect x="960" y="188" width="100" height="20" rx="10" fill="#bfdbfe" />
  <rect x="960" y="228" width="100" height="20" rx="10" fill="#93c5fd" />
  <rect x="960" y="268" width="100" height="20" rx="10" fill="#60a5fa" />
</svg>
